<?xml version="1.0" encoding="UTF-8"?>
<svg version="1.1" xmlns="http://www.w3.org/2000/svg" viewBox="243 38 460 460">
<path d="M0 0 C1.25417725 0.19287598 1.25417725 0.19287598 2.53369141 0.38964844 C22.96291417 3.71071754 43.45006176 10.86793548 62 20 C62.74121094 20.36174316 63.48242188 20.72348633 64.24609375 21.09619141 C81.6060924 29.65860453 96.61149143 40.32518527 111.42773438 52.71875 C112.72983066 53.77983716 114.08571625 54.7745237 115.453125 55.75 C115.96359375 56.1625 116.4740625 56.575 117 57 C117 57.66 117 58.32 117 59 C117.66 59 118.32 59 119 59 C119 59.66 119 60.32 119 61 C119.58265625 61.2578125 120.1653125 61.515625 120.765625 61.78125 C123.1802903 63.09834017 124.81740177 64.55088384 126.75 66.5 C127.36359375 67.1084375 127.9771875 67.716875 128.609375 68.34375 C130 70 130 70 130 72 C130.66 72 131.32 72 132 72 C136 76.47058824 136 76.47058824 136 79 C136.66 79 137.32 79 138 79 C141.2892464 82.76124589 144.11550136 86.92287211 147 91 C147.46792969 91.65887207 147.93585938 92.31774414 148.41796875 92.99658203 C183.18005996 142.37878868 198.56349649 205.07761032 188.51123047 264.90917969 C181.47906295 303.7840575 166.78596701 339.80632728 142.3359375 370.99609375 C139.86168788 374.17786291 137.48782259 377.41978501 135.15625 380.70703125 C134.7746875 381.13371094 134.393125 381.56039063 134 382 C133.34 382 132.68 382 132 382 C131.73574219 382.5887793 131.47148438 383.17755859 131.19921875 383.78417969 C129.95631056 386.08072584 128.64993519 387.60833166 126.8125 389.453125 C126.19632813 390.071875 125.58015625 390.690625 124.9453125 391.328125 C124.30335938 391.96234375 123.66140625 392.5965625 123 393.25 C122.35804688 393.8996875 121.71609375 394.549375 121.0546875 395.21875 C120.43851563 395.83234375 119.82234375 396.4459375 119.1875 397.078125 C118.62417969 397.63918945 118.06085938 398.20025391 117.48046875 398.77832031 C116 400 116 400 114 400 C114 400.66 114 401.32 114 402 C109.52941176 406 109.52941176 406 107 406 C107 406.66 107 407.32 107 408 C105.58569336 409.27758789 105.58569336 409.27758789 103.58984375 410.72265625 C102.85499756 411.25665039 102.12015137 411.79064453 101.36303711 412.34082031 C100.56260986 412.90897461 99.76218262 413.47712891 98.9375 414.0625 C98.11838135 414.64741211 97.2992627 415.23232422 96.45532227 415.83496094 C89.18620627 420.96908689 81.74895252 425.63292038 74 430 C73.36868164 430.36544922 72.73736328 430.73089844 72.08691406 431.10742188 C46.57248243 445.82189169 17.14784657 454.43289982 -12 458 C-12.68320312 458.08660385 -13.36640625 458.1732077 -14.0703125 458.26243591 C-19.25146185 458.88543298 -24.34244862 459.15999845 -29.55859375 459.16796875 C-30.3466188 459.17129715 -31.13464386 459.17462555 -31.94654846 459.17805481 C-33.60620549 459.18308206 -35.26587248 459.18546445 -36.92553711 459.18530273 C-39.40040874 459.18746756 -41.87481753 459.20560858 -44.34960938 459.22460938 C-59.23310572 459.27857406 -73.84011117 458.07703632 -88.375 454.75 C-89.33776855 454.53311523 -90.30053711 454.31623047 -91.29248047 454.09277344 C-126.85298745 445.88156095 -157.46581902 430.27187452 -186.38110352 408.20166016 C-187.88534247 407.08510698 -189.44128178 406.03914548 -191 405 C-191 404.34 -191 403.68 -191 403 C-191.53625 402.773125 -192.0725 402.54625 -192.625 402.3125 C-195.82460161 400.54429911 -198.29037223 398.46329797 -201 396 C-201 395.34 -201 394.68 -201 394 C-201.66 394 -202.32 394 -203 394 C-203 393.34 -203 392.68 -203 392 C-203.66 392 -204.32 392 -205 392 C-205 391.34 -205 390.68 -205 390 C-205.66 390 -206.32 390 -207 390 C-207 389.34 -207 388.68 -207 388 C-207.66 388 -208.32 388 -209 388 C-210.5078125 386.5390625 -210.5078125 386.5390625 -212.125 384.625 C-212.66382813 383.99851562 -213.20265625 383.37203125 -213.7578125 382.7265625 C-215 381 -215 381 -215 379 C-215.66 379 -216.32 379 -217 379 C-218.64921837 377.07641441 -220.17700184 375.15360802 -221.6875 373.125 C-222.13738281 372.5278418 -222.58726562 371.93068359 -223.05078125 371.31542969 C-224.37510165 369.54935384 -225.68865693 367.77572315 -227 366 C-227.61488281 365.17757813 -228.22976563 364.35515625 -228.86328125 363.5078125 C-257.38131235 324.16790325 -271.48669261 276.42472141 -271.375 228.125 C-271.37445618 227.23258606 -271.37391235 226.34017212 -271.37335205 225.42071533 C-271.24782848 180.36377696 -258.13161718 136.51401949 -233 99 C-232.57734863 98.35933594 -232.15469727 97.71867187 -231.71923828 97.05859375 C-226.443514 89.07545728 -226.443514 89.07545728 -224 86 C-223.34 86 -222.68 86 -222 86 C-221.34 84.35 -220.68 82.7 -220 81 C-219.34 81 -218.68 81 -218 81 C-217.62488281 80.14921875 -217.62488281 80.14921875 -217.2421875 79.28125 C-213.31161765 72.06284499 -206.30959138 66.20724634 -200.5625 60.375 C-199.78253662 59.57545898 -199.78253662 59.57545898 -198.98681641 58.75976562 C-197.69665266 57.46662817 -196.35239055 56.22791154 -195 55 C-194.34 55 -193.68 55 -193 55 C-193 54.34 -193 53.68 -193 53 C-191.018326 51.24122616 -189.03410628 49.61262489 -186.9375 48 C-186.3084375 47.51233154 -185.679375 47.02466309 -185.03125 46.5222168 C-165.55158876 31.60629302 -144.02466305 19.50764676 -121 11 C-120.32517578 10.74863281 -119.65035156 10.49726562 -118.95507812 10.23828125 C-80.8783216 -3.74330502 -39.89837499 -6.18632156 0 0 Z " fill="#D8B246" transform="translate(514,38)"/>
<path d="M0 0 C0.74588379 -0.00511093 1.49176758 -0.01022186 2.26025391 -0.01548767 C4.70109308 -0.02927205 7.14164631 -0.02843532 9.58251953 -0.02612305 C11.29590965 -0.03001625 13.00929882 -0.03435219 14.72268677 -0.03910828 C18.30506526 -0.04654663 21.88734516 -0.04629668 25.46972656 -0.04101562 C30.0378768 -0.0352257 34.60562097 -0.05215203 39.17370415 -0.0753603 C42.71011678 -0.09016366 46.24643311 -0.09096037 49.78287125 -0.08785057 C51.46601286 -0.08836052 53.14916034 -0.09353626 54.83227158 -0.10366249 C74.51499824 -0.20755858 87.77103651 5.57990101 102.10595703 19.1652832 C104.89335865 22.12826918 106.41405319 24.53526694 108.09033203 28.2746582 C108.42419922 29.01586914 108.75806641 29.75708008 109.10205078 30.52075195 C114.7106535 44.21908648 116.35909975 60.61916512 116.08251953 75.33325195 C116.06500615 77.03571998 116.04809759 78.73819432 116.03173828 80.44067383 C116.00084668 83.07798331 115.96528271 85.71496502 115.91894531 88.35205078 C115.55893605 102.10439576 115.55893605 102.10439576 119.09033203 115.2746582 C119.47511719 116.26961304 119.47511719 116.26961304 119.86767578 117.28466797 C121.07867038 120.3710656 122.39631348 123.41271613 123.68798828 126.46606445 C126.87197508 134.6766081 127.4490119 142.58105411 127.40283203 151.3371582 C127.39546021 152.98880981 127.39546021 152.98880981 127.38793945 154.67382812 C127.14815811 171.47204816 124.28169466 186.80275297 113.03955078 199.8527832 C111.14670286 202.20461829 109.84871313 204.47654026 108.46533203 207.1496582 C104.97945523 213.28635497 99.64721338 217.24503628 94.23486328 221.6105957 C90.63986599 224.50293292 90.63986599 224.50293292 88.09033203 228.2746582 C87.49283938 235.04160988 88.6660383 241.45974051 89.76733398 248.12695312 C92.47160147 264.5443754 93.77434348 280.83829772 94.40283203 297.4621582 C94.44180603 298.49093079 94.48078003 299.51970337 94.52093506 300.57965088 C94.84708056 309.47952642 95.13336492 318.36813426 95.09033203 327.2746582 C86.21689809 330.33705973 77.3842603 332.78477202 68.15283203 334.5246582 C67.29020752 334.68740234 66.42758301 334.85014648 65.53881836 335.01782227 C63.05985344 335.46702587 60.57898407 335.88286469 58.09033203 336.2746582 C57.41695801 336.38068359 56.74358398 336.48670898 56.04980469 336.59594727 C29.14006578 340.18734509 -8.28501496 339.58698471 -32.90966797 327.2746582 C-32.848508 325.54939644 -32.78729893 323.82413642 -32.72607422 322.09887695 C-32.68643555 320.97537842 -32.64679688 319.85187988 -32.60595703 318.69433594 C-32.51533746 316.16641381 -32.42216155 313.63858225 -32.32666016 311.11083984 C-32.09647642 304.95190048 -31.88866323 298.79698552 -31.79638672 292.6340332 C-31.51671225 277.91532538 -29.93445233 263.65729547 -27.63720703 249.13769531 C-25.08743473 237.31486865 -25.08743473 237.31486865 -27.08935547 225.92700195 C-27.64880859 225.36110352 -28.20826172 224.79520508 -28.78466797 224.2121582 C-29.42404297 223.55344727 -30.06341797 222.89473633 -30.72216797 222.21606445 C-32.9855696 220.20729551 -35.34800703 218.44288836 -37.78466797 216.6496582 C-43.26701267 212.43375179 -46.37584916 207.43259699 -49.87841797 201.59106445 C-51.51293224 198.92240557 -53.16722462 196.60613988 -55.15966797 194.2121582 C-66.74482008 179.08709851 -66.92843813 155.00100715 -64.60498047 136.90112305 C-63.08363151 128.62102611 -59.68067568 120.90383445 -56.17919922 113.2980957 C-53.89607161 107.86073948 -53.80417174 102.86210262 -53.91748047 97.02856445 C-53.93768358 95.37997611 -53.95684989 93.73137481 -53.97509766 92.08276367 C-53.98553101 91.22535583 -53.99596436 90.367948 -54.00671387 89.48455811 C-54.21627284 69.63822481 -54.02734831 50.08175972 -46.90966797 31.2746582 C-46.63638672 30.46125977 -46.36310547 29.64786133 -46.08154297 28.80981445 C-42.01714411 18.0022084 -32.49674707 11.87806517 -22.90966797 6.2746582 C-21.93320312 5.6559082 -21.93320312 5.6559082 -20.93701172 5.0246582 C-14.35047229 0.94370439 -7.60674001 -0.02751567 0 0 Z " fill="#F3F3E8" transform="translate(442.90966796875,129.725341796875)"/>
<path d="M0 0 C1.25417725 0.19287598 1.25417725 0.19287598 2.53369141 0.38964844 C22.96291417 3.71071754 43.45006176 10.86793548 62 20 C62.74121094 20.36174316 63.48242188 20.72348633 64.24609375 21.09619141 C81.6060924 29.65860453 96.61149143 40.32518527 111.42773438 52.71875 C112.72983066 53.77983716 114.08571625 54.7745237 115.453125 55.75 C115.96359375 56.1625 116.4740625 56.575 117 57 C117 57.66 117 58.32 117 59 C117.66 59 118.32 59 119 59 C119 59.66 119 60.32 119 61 C119.58265625 61.2578125 120.1653125 61.515625 120.765625 61.78125 C123.1802903 63.09834017 124.81740177 64.55088384 126.75 66.5 C127.36359375 67.1084375 127.9771875 67.716875 128.609375 68.34375 C130 70 130 70 130 72 C130.66 72 131.32 72 132 72 C136 76.47058824 136 76.47058824 136 79 C136.66 79 137.32 79 138 79 C141.2892464 82.76124589 144.11550136 86.92287211 147 91 C147.46792969 91.65887207 147.93585938 92.31774414 148.41796875 92.99658203 C183.18005996 142.37878868 198.56349649 205.07761032 188.51123047 264.90917969 C181.47906295 303.7840575 166.78596701 339.80632728 142.3359375 370.99609375 C139.86168788 374.17786291 137.48782259 377.41978501 135.15625 380.70703125 C134.7746875 381.13371094 134.393125 381.56039063 134 382 C133.34 382 132.68 382 132 382 C131.73574219 382.5887793 131.47148438 383.17755859 131.19921875 383.78417969 C129.95631056 386.08072584 128.64993519 387.60833166 126.8125 389.453125 C126.19632813 390.071875 125.58015625 390.690625 124.9453125 391.328125 C124.30335938 391.96234375 123.66140625 392.5965625 123 393.25 C122.35804688 393.8996875 121.71609375 394.549375 121.0546875 395.21875 C120.43851563 395.83234375 119.82234375 396.4459375 119.1875 397.078125 C118.62417969 397.63918945 118.06085938 398.20025391 117.48046875 398.77832031 C116 400 116 400 114 400 C114 400.66 114 401.32 114 402 C109.52941176 406 109.52941176 406 107 406 C107 406.66 107 407.32 107 408 C105.58569336 409.27758789 105.58569336 409.27758789 103.58984375 410.72265625 C102.85499756 411.25665039 102.12015137 411.79064453 101.36303711 412.34082031 C100.56260986 412.90897461 99.76218262 413.47712891 98.9375 414.0625 C98.11838135 414.64741211 97.2992627 415.23232422 96.45532227 415.83496094 C89.18620627 420.96908689 81.74895252 425.63292038 74 430 C73.36868164 430.36544922 72.73736328 430.73089844 72.08691406 431.10742188 C46.57248243 445.82189169 17.14784657 454.43289982 -12 458 C-12.68320312 458.08660385 -13.36640625 458.1732077 -14.0703125 458.26243591 C-19.25146185 458.88543298 -24.34244862 459.15999845 -29.55859375 459.16796875 C-30.3466188 459.17129715 -31.13464386 459.17462555 -31.94654846 459.17805481 C-33.60620549 459.18308206 -35.26587248 459.18546445 -36.92553711 459.18530273 C-39.40040874 459.18746756 -41.87481753 459.20560858 -44.34960938 459.22460938 C-59.23310572 459.27857406 -73.84011117 458.07703632 -88.375 454.75 C-89.33776855 454.53311523 -90.30053711 454.31623047 -91.29248047 454.09277344 C-126.85298745 445.88156095 -157.46581902 430.27187452 -186.38110352 408.20166016 C-187.88534247 407.08510698 -189.44128178 406.03914548 -191 405 C-191 404.34 -191 403.68 -191 403 C-191.53625 402.773125 -192.0725 402.54625 -192.625 402.3125 C-195.82460161 400.54429911 -198.29037223 398.46329797 -201 396 C-201 395.34 -201 394.68 -201 394 C-201.66 394 -202.32 394 -203 394 C-203 393.34 -203 392.68 -203 392 C-203.66 392 -204.32 392 -205 392 C-205 391.34 -205 390.68 -205 390 C-205.66 390 -206.32 390 -207 390 C-207 389.34 -207 388.68 -207 388 C-207.66 388 -208.32 388 -209 388 C-210.5078125 386.5390625 -210.5078125 386.5390625 -212.125 384.625 C-212.66382813 383.99851562 -213.20265625 383.37203125 -213.7578125 382.7265625 C-215 381 -215 381 -215 379 C-215.66 379 -216.32 379 -217 379 C-218.64921837 377.07641441 -220.17700184 375.15360802 -221.6875 373.125 C-222.13738281 372.5278418 -222.58726562 371.93068359 -223.05078125 371.31542969 C-224.37510165 369.54935384 -225.68865693 367.77572315 -227 366 C-227.61488281 365.17757813 -228.22976563 364.35515625 -228.86328125 363.5078125 C-257.38131235 324.16790325 -271.48669261 276.42472141 -271.375 228.125 C-271.37445618 227.23258606 -271.37391235 226.34017212 -271.37335205 225.42071533 C-271.24782848 180.36377696 -258.13161718 136.51401949 -233 99 C-232.57734863 98.35933594 -232.15469727 97.71867187 -231.71923828 97.05859375 C-226.443514 89.07545728 -226.443514 89.07545728 -224 86 C-223.34 86 -222.68 86 -222 86 C-221.34 84.35 -220.68 82.7 -220 81 C-219.34 81 -218.68 81 -218 81 C-217.62488281 80.14921875 -217.62488281 80.14921875 -217.2421875 79.28125 C-213.31161765 72.06284499 -206.30959138 66.20724634 -200.5625 60.375 C-199.78253662 59.57545898 -199.78253662 59.57545898 -198.98681641 58.75976562 C-197.69665266 57.46662817 -196.35239055 56.22791154 -195 55 C-194.34 55 -193.68 55 -193 55 C-193 54.34 -193 53.68 -193 53 C-191.018326 51.24122616 -189.03410628 49.61262489 -186.9375 48 C-186.3084375 47.51233154 -185.679375 47.02466309 -185.03125 46.5222168 C-165.55158876 31.60629302 -144.02466305 19.50764676 -121 11 C-120.32517578 10.74863281 -119.65035156 10.49726562 -118.95507812 10.23828125 C-80.8783216 -3.74330502 -39.89837499 -6.18632156 0 0 Z M-85 32 C-86.04494629 32.27908203 -87.08989258 32.55816406 -88.16650391 32.84570312 C-139.94938418 47.05262703 -185.90133566 79.15448725 -212.91015625 126.21484375 C-216.52610779 132.68646984 -219.83815163 139.29633127 -223 146 C-223.53496094 147.12792969 -224.06992187 148.25585938 -224.62109375 149.41796875 C-231.1572106 163.89928737 -235.39417676 179.3491714 -238 195 C-238.16846436 195.88510254 -238.33692871 196.77020508 -238.51049805 197.68212891 C-240.21100848 207.3095176 -240.35521758 216.75715307 -240.3125 226.5 C-240.31100952 227.33904877 -240.30951904 228.17809753 -240.3079834 229.04257202 C-240.26686384 241.92173911 -239.60520508 254.35564726 -237 267 C-236.75341164 268.36058753 -236.50730799 269.72126302 -236.26171875 271.08203125 C-230.1338523 302.50396764 -214.51950142 331.723014 -194.38037109 356.28955078 C-193.02547087 357.96843846 -191.72533242 359.68045096 -190.42578125 361.40234375 C-189.60464844 362.42457031 -188.78351563 363.44679688 -187.9375 364.5 C-187.22464844 365.4178125 -186.51179688 366.335625 -185.77734375 367.28125 C-182.59149932 369.2527993 -182.01585315 369.15391707 -178.48046875 368.4921875 C-176.64671268 368.02099406 -174.82008829 367.52150092 -173 367 C-172.01475342 366.74444336 -171.02950684 366.48888672 -170.0144043 366.22558594 C-166.79311609 365.38663256 -163.58415583 364.50916 -160.375 363.625 C-158.05232403 362.99390513 -155.72940809 362.36369279 -153.40625 361.734375 C-152.29636719 361.43337891 -151.18648438 361.13238281 -150.04296875 360.82226562 C-137.57288095 357.45262059 -125.02044952 354.6590463 -112.37109375 352.05078125 C-111.50411865 351.87200439 -110.63714355 351.69322754 -109.74389648 351.5090332 C-106.50762439 350.90865707 -103.26057878 350.44754029 -100 350 C-100.19698486 351.10045654 -100.19698486 351.10045654 -100.39794922 352.22314453 C-102.31393447 364.05861999 -102.67462248 375.91150233 -103.125 387.875 C-103.21162422 390.00783758 -103.29885968 392.14065043 -103.38671875 394.2734375 C-103.46929261 396.32549907 -103.55134245 398.37758181 -103.6328125 400.4296875 C-103.67028595 401.37254608 -103.7077594 402.31540466 -103.74636841 403.28683472 C-103.94305209 408.52911821 -104.03605206 413.7540414 -104 419 C-91.42791943 422.81549964 -79.0273077 426.16721076 -66 428 C-64.0509375 428.27650391 -64.0509375 428.27650391 -62.0625 428.55859375 C-54.82363781 429.32646879 -47.52183086 429.24433935 -40.25 429.25 C-39.08149002 429.25101212 -39.08149002 429.25101212 -37.88937378 429.25204468 C-17.01567405 429.22338048 4.51524372 427.04722132 24 419 C23.93884003 417.27473824 23.87763096 415.54947822 23.81640625 413.82421875 C23.77652588 412.69902832 23.73664551 411.57383789 23.69555664 410.41455078 C23.60592121 407.9037719 23.51524263 405.39303006 23.42358398 402.88232422 C23.18986163 396.46237594 22.96790752 390.04263091 22.78125 383.62109375 C22.72602173 381.8572937 22.72602173 381.8572937 22.66967773 380.05786133 C22.60052851 377.84303859 22.53711531 375.62802579 22.48071289 373.4128418 C22.2230737 365.50758164 21.24549488 357.80781884 20 350 C53.24311273 356.25030643 53.24311273 356.25030643 64.72851562 359.38134766 C67.64420871 360.17545409 70.56442197 360.95217551 73.484375 361.73046875 C78.05504514 362.95224343 82.6244453 364.17849122 87.19140625 365.4140625 C88.20477051 365.68637695 89.21813477 365.95869141 90.26220703 366.23925781 C92.5185944 366.86623329 94.73677145 367.55540286 96.96484375 368.2734375 C100.23495377 369.05624376 101.87360001 369.21206522 105 368 C124.3923567 351.29635827 136.65104508 325.78976682 147 303 C147.79083984 301.27523437 147.79083984 301.27523437 148.59765625 299.515625 C161.90499637 267.85185752 164.80365528 228.60946889 159 195 C158.82259277 193.96020996 158.82259277 193.96020996 158.64160156 192.89941406 C152.62416013 159.3211722 137.75233505 125.59637693 115 100 C114.319375 99.21109375 113.63875 98.4221875 112.9375 97.609375 C110.67096365 95.02619019 108.35140779 92.50624781 106 90 C105.26402588 89.21302734 105.26402588 89.21302734 104.51318359 88.41015625 C71.75581938 53.67752398 23.28504162 29.61313801 -24.76391602 27.77856445 C-30.00931928 27.63587469 -35.2529176 27.61234739 -40.5 27.625 C-41.42852783 27.6262085 -42.35705566 27.62741699 -43.3137207 27.62866211 C-57.55078456 27.67890048 -71.18301712 28.27728959 -85 32 Z " fill="#B12330" transform="translate(514,38)"/>
<path d="M0 0 C2.55415931 0.86871024 5.05526375 1.81711845 7.57421875 2.7890625 C14.07325788 4.79538109 18.52056866 4.0006198 24.6796875 1.3828125 C31.86913433 -1.28164703 38.49999664 -2.64628901 46.1171875 -1.1171875 C50.02018545 1.12805424 53.08875979 3.82595708 55.1171875 7.8828125 C55.19708099 9.40724965 55.21399782 10.93521458 55.19897461 12.46166992 C55.1924437 13.41414108 55.18591278 14.36661224 55.17918396 15.34794617 C55.16774857 16.38425674 55.15631317 17.42056732 55.14453125 18.48828125 C55.13186415 20.6920556 55.11950479 22.89583174 55.10742188 25.09960938 C55.08280603 28.56605633 55.05505727 32.03240946 55.02124023 35.4987793 C54.68743703 58.59578816 54.68743703 58.59578816 59.4921875 81.0703125 C59.70770264 81.73264893 59.92321777 82.39498535 60.14526367 83.07739258 C61.14064745 86.11483346 62.20314788 89.11056604 63.33203125 92.1015625 C66.401702 100.40387485 67.72531354 108.555895 65.1171875 117.1953125 C55.70732647 129.83981325 39.21738276 140.72206335 23.5078125 143.52734375 C6.05552866 145.35701867 -7.93330769 140.31286275 -21.8828125 129.8828125 C-35.28408739 118.80903176 -35.28408739 118.80903176 -36.19140625 111.34375 C-36.58884525 101.82930114 -33.96655874 94.50558476 -30.60498047 85.796875 C-25.70285061 72.80407645 -24.68093233 59.50983262 -24.93359375 45.76171875 C-24.95161041 44.6840625 -24.96962708 43.60640625 -24.9881897 42.49609375 C-25.07035909 38.00477335 -25.1622662 33.5146237 -25.30102539 29.0246582 C-25.39803072 25.70764799 -25.4503674 22.39227943 -25.49609375 19.07421875 C-25.53849686 18.06887589 -25.58089996 17.06353302 -25.62458801 16.02772522 C-25.66472571 10.55646827 -25.08658721 7.47140315 -21.46948242 3.24584961 C-15.53507591 -2.77421616 -7.84764201 -2.48580207 0 0 Z " fill="#D7821B" transform="translate(458.8828125,202.1171875)"/>
<path d="M0 0 C8.89438104 0.4525434 17.44415361 1.91138056 26.12548828 3.79150391 C28.23119369 4.24594136 30.33979758 4.68427208 32.44921875 5.12109375 C40.88854242 6.90299491 49.06348235 9.1564251 57.26855469 11.80908203 C62.47124332 13.46955803 67.72447397 14.90445467 73 16.3125 C73.97710938 16.57611328 74.95421875 16.83972656 75.9609375 17.11132812 C78.30654559 17.74372246 80.65286622 18.37329711 83 19 C63.2610718 42.59145444 33.45393828 60.37379842 4 69 C3.13036298 62.8047421 2.73495086 56.67877968 2.5 50.4296875 C2.45939453 49.4309964 2.41878906 48.4323053 2.37695312 47.40335083 C2.2481307 44.22735152 2.12368543 41.05120319 2 37.875 C1.27204463 18.92223248 1.27204463 18.92223248 0 0 Z " fill="#1F3461" transform="translate(534,388)"/>
<path d="M0 0 C-0.06058594 0.7336377 -0.12117188 1.46727539 -0.18359375 2.22314453 C-1.18362969 15.16014795 -1.62017201 28.12113586 -2.125 41.08496094 C-2.24712068 44.1999923 -2.37335428 47.3148373 -2.5 50.4296875 C-2.55317383 51.84397537 -2.55317383 51.84397537 -2.60742188 53.28683472 C-2.82458388 58.5783131 -3.26372793 63.75482848 -4 69 C-15.11426044 65.09818516 -25.60392965 60.53640035 -36 55 C-36.59522461 54.68836914 -37.19044922 54.37673828 -37.80371094 54.05566406 C-51.95923291 46.59500134 -64.31397434 36.8712202 -76 26 C-78.31536071 23.97772292 -80.65509566 21.98807107 -83 20 C-80.38921817 18.25947878 -78.84338452 17.52828418 -75.921875 16.703125 C-75.10332031 16.46980469 -74.28476562 16.23648437 -73.44140625 15.99609375 C-72.55324219 15.74988281 -71.66507812 15.50367188 -70.75 15.25 C-69.81542969 14.98832031 -68.88085938 14.72664063 -67.91796875 14.45703125 C-64.94737978 13.63032939 -61.9740129 12.81428981 -59 12 C-58.08541016 11.74669922 -57.17082031 11.49339844 -56.22851562 11.23242188 C-44.4020061 7.97140449 -32.50301894 5.15068535 -20.5 2.625 C-19.26507813 2.36203125 -18.03015625 2.0990625 -16.7578125 1.828125 C-15.58992188 1.58835937 -14.42203125 1.34859375 -13.21875 1.1015625 C-12.18685547 0.88838379 -11.15496094 0.67520508 -10.09179688 0.45556641 C-6.69041223 -0.04561677 -3.43329763 -0.07597222 0 0 Z " fill="#1F3561" transform="translate(414,388)"/>
<path d="M0 0 C6.71752353 3.07056848 11.20973873 7.37645567 13.8984375 14.3203125 C16.41729937 21.87689811 17.24155072 28.65827781 14.02734375 36.16796875 C12.15716237 39.50300703 10.29575831 41.08246789 7 43 C1.4893479 44.22771331 -2.95397141 43.46723922 -7.8125 40.625 C-13.507181 36.3917858 -16.72299188 29.92680165 -18 23 C-18.1177153 20.85648652 -18.17509129 18.70920747 -18.1875 16.5625 C-18.20167969 15.45003906 -18.21585937 14.33757812 -18.23046875 13.19140625 C-17.88252447 8.37326259 -16.70102343 5.78865136 -13.5 2.1875 C-9.33519412 -0.99437116 -5.00422329 -1.06104584 0 0 Z " fill="#243760" transform="translate(527,154)"/>
<path d="M0 0 C4.3747615 2.42008083 6.42924503 5.2877351 8 10 C8.90780023 18.29198011 8.21887236 25.69105056 4 33 C2.48828125 34.7734375 2.48828125 34.7734375 1 36 C0.34 36 -0.32 36 -1 36 C-1.2475 36.598125 -1.495 37.19625 -1.75 37.8125 C-3.21735329 40.38036825 -4.50336131 41.42917988 -7 43 C-11.20810949 43.90928999 -15.26562217 43.89413994 -19.13671875 41.8984375 C-23.4032309 38.55320575 -25.1558031 35.44038001 -26 30 C-26.74453719 20.9166463 -24.50810231 12.78064348 -18.65625 5.6953125 C-13.2854292 0.19782139 -7.60966665 -1.2661245 0 0 Z " fill="#233760" transform="translate(431,154)"/>
<path d="M0 0 C4.3747615 2.42008083 6.42924503 5.2877351 8 10 C8.90780023 18.29198011 8.21887236 25.69105056 4 33 C2.48828125 34.7734375 2.48828125 34.7734375 1 36 C0.34 36 -0.32 36 -1 36 C-1.2475 36.598125 -1.495 37.19625 -1.75 37.8125 C-3.21735329 40.38036825 -4.50336131 41.42917988 -7 43 C-11.20810949 43.90928999 -15.26562217 43.89413994 -19.13671875 41.8984375 C-23.4032309 38.55320575 -25.1558031 35.44038001 -26 30 C-26.74453719 20.9166463 -24.50810231 12.78064348 -18.65625 5.6953125 C-13.2854292 0.19782139 -7.60966665 -1.2661245 0 0 Z M-15 9 C-15 9.66 -15 10.32 -15 11 C-15.66 11 -16.32 11 -17 11 C-17 11.99 -17 12.98 -17 14 C-17.66 14 -18.32 14 -19 14 C-20.67286286 20.88562302 -22.09326222 27.91657186 -21 35 C-19.16348401 38.33821811 -19.16348401 38.33821811 -16 40 C-11.65070783 40.71170236 -9.58925309 40.31130352 -5.6875 38.25 C-3.22457238 36.18801409 -2.0623761 34.97465309 -1 32 C-0.34 32 0.32 32 1 32 C4.76680621 25.40808913 4.87309546 18.45555044 4 11 C2.44275038 7.21751518 2.44275038 7.21751518 0 4 C-6.73675583 3.00721493 -10.37186072 4.01585001 -15 9 Z " fill="#A12636" transform="translate(431,154)"/>
<path d="M0 0 C6.71752353 3.07056848 11.20973873 7.37645567 13.8984375 14.3203125 C16.41729937 21.87689811 17.24155072 28.65827781 14.02734375 36.16796875 C12.15716237 39.50300703 10.29575831 41.08246789 7 43 C1.4893479 44.22771331 -2.95397141 43.46723922 -7.8125 40.625 C-13.507181 36.3917858 -16.72299188 29.92680165 -18 23 C-18.1177153 20.85648652 -18.17509129 18.70920747 -18.1875 16.5625 C-18.20167969 15.45003906 -18.21585937 14.33757812 -18.23046875 13.19140625 C-17.88252447 8.37326259 -16.70102343 5.78865136 -13.5 2.1875 C-9.33519412 -0.99437116 -5.00422329 -1.06104584 0 0 Z M-10 3 C-14.96447363 10.75699004 -15.37323525 18.73404577 -13.41015625 27.69140625 C-11.42999564 33.08437822 -8.22015134 36.07368361 -3.30859375 38.9609375 C0.09357245 40.49220012 2.34749572 40.77264514 6 40 C9.16348401 38.33821811 9.16348401 38.33821811 11 35 C12.09326222 27.91657186 10.67286286 20.88562302 9 14 C8.34 14 7.68 14 7 14 C6.773125 13.2575 6.54625 12.515 6.3125 11.75 C4.75071394 8.47768636 2.87764944 7.13979061 0 5 C-0.33 4.34 -0.66 3.68 -1 3 C-3.97 3 -6.94 3 -10 3 Z " fill="#A02637" transform="translate(527,154)"/>
<path d="M0 0 C2.5 0.5625 2.5 0.5625 4.13671875 2.69140625 C5.7348507 6.05709961 5.86885016 8.35205878 5.8125 12.0625 C5.80863281 13.1659375 5.80476563 14.269375 5.80078125 15.40625 C5.50044435 18.55783725 5.00792143 20.78368827 3.5 23.5625 C0.5 24.5 0.5 24.5 -2.5 24.5625 C-6.17857068 20.88392932 -5.68618309 16.58276324 -5.75 11.5625 C-5.78867187 9.7371875 -5.78867187 9.7371875 -5.828125 7.875 C-5.39820702 3.53487568 -4.42800126 0.99630028 0 0 Z " fill="#070400" transform="translate(491.5,280.4375)"/>
<path d="M0 0 C2.5 0.5625 2.5 0.5625 4.13671875 2.1640625 C5.97358382 5.39568185 5.86380384 7.80217701 5.8125 11.5 C5.80863281 12.70527344 5.80476563 13.91054688 5.80078125 15.15234375 C5.51274056 18.41805189 5.0410286 20.68237069 3.5 23.5625 C1.0625 24.5 1.0625 24.5 -1.5 24.5625 C-4.5 22.5625 -4.5 22.5625 -5.171875 20.83984375 C-5.59269239 17.91917067 -5.70905836 15.07620957 -5.75 12.125 C-5.77578125 11.01253906 -5.8015625 9.90007812 -5.828125 8.75390625 C-5.39033982 4.4959242 -4.46689029 1.00505032 0 0 Z " fill="#070400" transform="translate(456.5,280.4375)"/>
<path d="M0 0 C1.1096576 3.32897281 0.966459 5.57137558 0.8125 9.0625 C0.74199838 14.79235891 1.69392684 18.91662951 4.125 24.07421875 C5 26 5 26 5 28 C5.556875 28.268125 6.11375 28.53625 6.6875 28.8125 C9 30 9 30 11.3125 31.5625 C14.54177723 33.28978782 17.37956857 33.64505574 21 34 C21.33 34.99 21.66 35.98 22 37 C15.20624268 37.76589331 10.53457756 37.11309305 4.98046875 32.984375 C-1.14868422 26.84313297 -3.13436972 18.90246734 -3.25 10.5 C-3.28867187 8.81390625 -3.28867187 8.81390625 -3.328125 7.09375 C-2.97312127 3.74657193 -2.2606064 2.4271774 0 0 Z " fill="#A82433" transform="translate(512,160)"/>
<path d="M0 0 C1.9375 0.375 1.9375 0.375 4 1 C5.35439668 3.70879335 5.06501451 6.00933268 5 9 C6.65 9 8.3 9 10 9 C11.90608098 12.21182149 12.22266247 14.53882603 12.125 18.25 C12.10695313 19.14203125 12.08890625 20.0340625 12.0703125 20.953125 C12.03550781 21.96632812 12.03550781 21.96632812 12 23 C11.01 22.67 10.02 22.34 9 22 C9 19.36 9 16.72 9 14 C6.69 13.67 4.38 13.34 2 13 C0.24252386 8.49646738 -0.19294408 4.82360189 0 0 Z " fill="#E0E2DD" transform="translate(519,164)"/>
<path d="M0 0 C0.99 0 1.98 0 3 0 C3.16846986 8.59196291 3.16846986 8.59196291 2 12 C-0.89810116 14.09862498 -2.28378861 14 -6 14 C-6 16.64 -6 19.28 -6 22 C-6.99 22.33 -7.98 22.66 -9 23 C-9.05437607 21.41705218 -9.09296271 19.83355744 -9.125 18.25 C-9.14820313 17.36828125 -9.17140625 16.4865625 -9.1953125 15.578125 C-8.99139502 12.8864142 -8.36551721 11.30095026 -7 9 C-5.35 9 -3.7 9 -2 9 C-2.04125 8.071875 -2.0825 7.14375 -2.125 6.1875 C-2 3 -2 3 0 0 Z " fill="#E5E7E0" transform="translate(426,164)"/>
<path d="M0 0 C0.74443359 0.52400391 0.74443359 0.52400391 1.50390625 1.05859375 C6.10584605 4.14110751 9.46239061 5.65389941 15 6 C15.33 6.99 15.66 7.98 16 9 C8.68473673 9.82468521 4.52611335 8.72885981 -1.3828125 4.3125 C-1.91648437 3.879375 -2.45015625 3.44625 -3 3 C-2.67 2.34 -2.34 1.68 -2 1 C-1.34 1.33 -0.68 1.66 0 2 C0 1.34 0 0.68 0 0 Z " fill="#B13441" transform="translate(518,188)"/>
<path d="M0 0 C1.485 0.99 1.485 0.99 3 2 C3.1875 5.625 3.1875 5.625 3 9 C2.01 9.33 1.02 9.66 0 10 C0 6.7 0 3.4 0 0 Z " fill="#D4D7D4" transform="translate(417,177)"/>
<path d="M0 0 C0.99 0 1.98 0 3 0 C3 2.31 3 4.62 3 7 C2.34 5.68 1.68 4.36 1 3 C0.01 4.32 -0.98 5.64 -2 7 C-1.125 1.125 -1.125 1.125 0 0 Z " fill="#D1D4D3" transform="translate(426,164)"/>
<path d="M0 0 C0.33 0 0.66 0 1 0 C1 3.3 1 6.6 1 10 C0.01 9.67 -0.98 9.34 -2 9 C-1.855625 8.443125 -1.71125 7.88625 -1.5625 7.3125 C-0.97230872 4.88615805 -0.476571 2.45093655 0 0 Z " fill="#CED2D1" transform="translate(530,177)"/>
</svg>
